<svg xmlns="http://www.w3.org/2000/svg" xmlns:xlink="http://www.w3.org/1999/xlink" width="1080" zoomAndPan="magnify" viewBox="0 0 810 1439.999935" height="1920" preserveAspectRatio="xMidYMid meet" version="1.0"><path fill="#ffffff" d="M 405 558 C 315.738281 558 243 630.738281 243 720 C 243 809.261719 315.738281 882 405 882 C 494.261719 882 567 809.261719 567 720 C 567 630.738281 494.261719 558 405 558 Z M 405 858.832031 C 328.375 858.832031 266.164062 796.625 266.164062 720 C 266.164062 643.375 328.375 581.164062 405 581.164062 C 481.625 581.164062 543.835938 643.375 543.835938 720 C 543.835938 796.625 481.625 858.832031 405 858.832031 Z M 405 858.832031 " fill-opacity="1" fill-rule="nonzero"/><path fill="#ffffff" d="M 363.851562 741.222656 C 358.507812 737.65625 357.046875 730.53125 360.613281 725.183594 C 364.175781 719.839844 371.304688 718.378906 376.648438 721.945312 L 393.335938 733.121094 L 393.335938 650.5 C 393.335938 644.183594 398.519531 639 404.839844 639 C 411.15625 639 416.339844 644.183594 416.339844 650.5 L 416.339844 732.960938 L 433.027344 721.78125 C 438.371094 718.21875 445.5 719.675781 449.0625 725.023438 C 452.628906 730.367188 451.171875 737.496094 445.824219 741.058594 L 411.480469 764.386719 C 411.316406 764.550781 411.15625 764.550781 410.992188 764.550781 C 410.832031 764.710938 410.671875 764.875 410.507812 764.875 C 410.023438 765.199219 409.535156 765.199219 409.050781 765.523438 C 408.726562 765.683594 408.402344 765.847656 408.078125 765.847656 C 407.105469 766.167969 406.132812 766.332031 405.160156 766.332031 C 404.191406 766.332031 403.054688 766.167969 402.082031 765.847656 C 401.761719 765.683594 401.4375 765.683594 401.113281 765.523438 C 400.464844 765.199219 399.816406 765.035156 399.167969 764.550781 C 399.007812 764.386719 398.84375 764.386719 398.683594 764.386719 Z M 363.851562 741.222656 " fill-opacity="1" fill-rule="nonzero"/><path fill="#ffffff" d="M 474.496094 789.496094 C 474.496094 795.816406 469.3125 801 462.996094 801 L 347.164062 801 C 340.847656 801 335.664062 795.816406 335.664062 789.496094 C 335.664062 783.179688 340.847656 777.996094 347.164062 777.996094 L 462.835938 777.996094 C 469.3125 777.832031 474.496094 783.019531 474.496094 789.496094 Z M 474.496094 789.496094 " fill-opacity="1" fill-rule="nonzero"/></svg>