<svg xmlns="http://www.w3.org/2000/svg" xmlns:xlink="http://www.w3.org/1999/xlink" width="1080" zoomAndPan="magnify" viewBox="0 0 810 1439.999935" height="1920" preserveAspectRatio="xMidYMid meet" version="1.0"><path fill="#ffffff" d="M 382.058594 581.367188 C 381.402344 581.117188 380.730469 580.917969 380.046875 580.769531 C 379.359375 580.617188 378.664062 580.519531 377.964844 580.476562 C 377.265625 580.429688 376.5625 580.4375 375.863281 580.5 C 375.164062 580.558594 374.472656 580.671875 373.789062 580.835938 C 373.105469 581 372.441406 581.214844 371.789062 581.480469 C 371.140625 581.746094 370.511719 582.058594 369.910156 582.417969 C 369.304688 582.777344 368.734375 583.179688 368.191406 583.625 C 367.648438 584.070312 367.140625 584.554688 366.671875 585.074219 L 307.847656 650.402344 L 258.121094 650.402344 C 257.199219 650.402344 256.292969 650.492188 255.390625 650.671875 C 254.488281 650.851562 253.613281 651.117188 252.765625 651.464844 C 251.917969 651.816406 251.109375 652.25 250.347656 652.757812 C 249.582031 653.269531 248.878906 653.851562 248.226562 654.5 C 247.578125 655.148438 247 655.855469 246.488281 656.617188 C 245.976562 657.382812 245.546875 658.1875 245.195312 659.039062 C 244.84375 659.886719 244.578125 660.761719 244.398438 661.660156 C 244.21875 662.5625 244.128906 663.472656 244.128906 664.390625 L 244.128906 783.292969 C 244.128906 784.210938 244.21875 785.121094 244.398438 786.023438 C 244.578125 786.925781 244.84375 787.796875 245.195312 788.648438 C 245.546875 789.496094 245.976562 790.300781 246.488281 791.066406 C 247 791.828125 247.578125 792.535156 248.226562 793.183594 C 248.878906 793.835938 249.582031 794.414062 250.347656 794.925781 C 251.109375 795.433594 251.917969 795.867188 252.765625 796.21875 C 253.613281 796.570312 254.488281 796.835938 255.390625 797.015625 C 256.292969 797.191406 257.199219 797.28125 258.121094 797.28125 L 308.269531 797.28125 L 367.089844 856.105469 C 367.578125 856.59375 368.09375 857.046875 368.648438 857.457031 C 369.199219 857.871094 369.777344 858.242188 370.386719 858.566406 C 370.992188 858.894531 371.621094 859.175781 372.269531 859.410156 C 372.917969 859.644531 373.578125 859.828125 374.253906 859.964844 C 374.929688 860.101562 375.613281 860.1875 376.300781 860.222656 C 376.988281 860.257812 377.675781 860.246094 378.363281 860.179688 C 379.046875 860.113281 379.726562 859.996094 380.394531 859.832031 C 381.0625 859.664062 381.71875 859.449219 382.355469 859.1875 C 382.992188 858.925781 383.605469 858.617188 384.199219 858.261719 C 384.789062 857.910156 385.351562 857.511719 385.886719 857.078125 C 386.417969 856.640625 386.917969 856.167969 387.378906 855.65625 C 387.84375 855.144531 388.265625 854.605469 388.652344 854.03125 C 389.035156 853.457031 389.371094 852.859375 389.667969 852.238281 C 389.960938 851.613281 390.210938 850.972656 390.410156 850.3125 C 390.609375 849.652344 390.761719 848.980469 390.859375 848.300781 C 390.960938 847.617188 391.011719 846.933594 391.011719 846.242188 L 391.011719 594.449219 C 391.011719 593.742188 390.960938 593.042969 390.855469 592.347656 C 390.753906 591.652344 390.597656 590.96875 390.390625 590.296875 C 390.183594 589.625 389.925781 588.972656 389.621094 588.339844 C 389.316406 587.703125 388.964844 587.097656 388.566406 586.515625 C 388.167969 585.9375 387.730469 585.390625 387.25 584.875 C 386.769531 584.359375 386.253906 583.886719 385.703125 583.449219 C 385.152344 583.011719 384.570312 582.621094 383.960938 582.269531 C 383.347656 581.921875 382.714844 581.621094 382.058594 581.367188 Z M 363.035156 812.460938 L 323.9375 773.363281 C 322.625 772.0625 321.113281 771.058594 319.40625 770.355469 C 317.699219 769.65625 315.921875 769.304688 314.074219 769.304688 L 272.109375 769.304688 L 272.109375 678.378906 L 314.074219 678.378906 C 316.058594 678.382812 317.960938 677.984375 319.777344 677.179688 C 321.589844 676.375 323.164062 675.238281 324.496094 673.761719 L 363.035156 630.886719 L 363.035156 812.738281 Z M 363.035156 812.460938 " fill-opacity="1" fill-rule="nonzero"/><path fill="#ffffff" d="M 471.726562 622.425781 C 471.074219 621.777344 470.363281 621.199219 469.597656 620.6875 C 468.832031 620.179688 468.023438 619.75 467.175781 619.402344 C 466.324219 619.050781 465.445312 618.789062 464.542969 618.613281 C 463.640625 618.433594 462.730469 618.347656 461.8125 618.351562 C 460.890625 618.355469 459.980469 618.445312 459.082031 618.628906 C 458.179688 618.8125 457.304688 619.078125 456.457031 619.433594 C 455.605469 619.789062 454.800781 620.222656 454.039062 620.738281 C 453.277344 621.25 452.570312 621.832031 451.921875 622.484375 C 451.273438 623.136719 450.695312 623.847656 450.1875 624.613281 C 449.679688 625.378906 449.253906 626.1875 448.902344 627.039062 C 448.554688 627.890625 448.292969 628.769531 448.117188 629.671875 C 447.941406 630.574219 447.855469 631.484375 447.859375 632.402344 C 447.863281 633.324219 447.957031 634.234375 448.136719 635.132812 C 448.320312 636.035156 448.589844 636.910156 448.945312 637.757812 C 449.300781 638.605469 449.738281 639.410156 450.25 640.175781 C 450.765625 640.9375 451.347656 641.640625 452 642.289062 C 453.292969 643.566406 454.550781 644.875 455.777344 646.214844 C 457.003906 647.554688 458.195312 648.925781 459.351562 650.324219 C 460.511719 651.722656 461.632812 653.152344 462.722656 654.605469 C 463.808594 656.058594 464.859375 657.539062 465.875 659.046875 C 466.890625 660.554688 467.867188 662.085938 468.804688 663.640625 C 469.742188 665.195312 470.644531 666.769531 471.503906 668.371094 C 472.367188 669.96875 473.1875 671.589844 473.96875 673.230469 C 474.75 674.867188 475.488281 676.527344 476.1875 678.203125 C 476.886719 679.878906 477.542969 681.570312 478.160156 683.28125 C 478.777344 684.988281 479.347656 686.710938 479.878906 688.449219 C 480.410156 690.1875 480.898438 691.9375 481.339844 693.695312 C 481.785156 695.457031 482.183594 697.230469 482.542969 699.011719 C 482.898438 700.792969 483.210938 702.578125 483.476562 704.375 C 483.746094 706.171875 483.96875 707.972656 484.148438 709.78125 C 484.328125 711.589844 484.464844 713.398438 484.550781 715.214844 C 484.640625 717.027344 484.6875 718.84375 484.6875 720.660156 C 484.6875 722.476562 484.640625 724.292969 484.550781 726.105469 C 484.464844 727.917969 484.328125 729.730469 484.148438 731.539062 C 483.96875 733.34375 483.746094 735.148438 483.476562 736.945312 C 483.210938 738.738281 482.898438 740.527344 482.542969 742.308594 C 482.183594 744.089844 481.785156 745.863281 481.339844 747.621094 C 480.898438 749.382812 480.410156 751.132812 479.878906 752.871094 C 479.347656 754.605469 478.777344 756.332031 478.160156 758.039062 C 477.542969 759.746094 476.886719 761.441406 476.1875 763.117188 C 475.488281 764.792969 474.75 766.453125 473.96875 768.089844 C 473.1875 769.730469 472.367188 771.351562 471.503906 772.949219 C 470.644531 774.550781 469.742188 776.125 468.804688 777.679688 C 467.867188 779.234375 466.890625 780.765625 465.875 782.273438 C 464.859375 783.777344 463.808594 785.257812 462.722656 786.714844 C 461.632812 788.167969 460.511719 789.59375 459.351562 790.996094 C 458.195312 792.394531 457.003906 793.761719 455.777344 795.105469 C 454.550781 796.445312 453.292969 797.753906 452 799.03125 C 451.589844 799.328125 451.191406 799.648438 450.8125 799.988281 C 450.433594 800.328125 450.074219 800.6875 449.734375 801.066406 C 449.394531 801.449219 449.078125 801.84375 448.78125 802.257812 C 448.484375 802.671875 448.214844 803.101562 447.964844 803.546875 C 447.714844 803.992188 447.492188 804.445312 447.292969 804.914062 C 447.09375 805.382812 446.917969 805.863281 446.769531 806.351562 C 446.625 806.835938 446.503906 807.332031 446.410156 807.832031 C 446.316406 808.332031 446.253906 808.835938 446.214844 809.34375 C 446.175781 809.851562 446.164062 810.359375 446.183594 810.871094 C 446.199219 811.378906 446.246094 811.886719 446.316406 812.390625 C 446.390625 812.894531 446.492188 813.390625 446.617188 813.886719 C 446.746094 814.378906 446.898438 814.863281 447.078125 815.339844 C 447.257812 815.816406 447.464844 816.28125 447.695312 816.734375 C 447.925781 817.1875 448.179688 817.628906 448.460938 818.054688 C 448.738281 818.480469 449.039062 818.890625 449.363281 819.285156 C 449.6875 819.675781 450.03125 820.050781 450.398438 820.40625 C 450.761719 820.761719 451.144531 821.097656 451.546875 821.410156 C 451.945312 821.726562 452.363281 822.015625 452.796875 822.285156 C 453.230469 822.550781 453.675781 822.796875 454.136719 823.015625 C 454.59375 823.234375 455.066406 823.429688 455.546875 823.597656 C 456.027344 823.765625 456.515625 823.90625 457.011719 824.019531 C 457.507812 824.136719 458.007812 824.222656 458.515625 824.285156 C 459.019531 824.34375 459.527344 824.375 460.035156 824.378906 C 460.546875 824.386719 461.054688 824.363281 461.5625 824.3125 C 462.066406 824.261719 462.570312 824.183594 463.066406 824.074219 C 463.566406 823.96875 464.058594 823.835938 464.542969 823.679688 C 465.023438 823.519531 465.5 823.332031 465.960938 823.121094 C 466.425781 822.910156 466.875 822.675781 467.3125 822.414062 C 467.75 822.15625 468.171875 821.871094 468.582031 821.566406 C 468.988281 821.257812 469.375 820.929688 469.746094 820.582031 C 470.117188 820.234375 470.46875 819.863281 470.800781 819.476562 C 471.128906 819.089844 471.4375 818.6875 471.726562 818.265625 C 473.332031 816.664062 474.898438 815.027344 476.421875 813.347656 C 477.945312 811.667969 479.429688 809.957031 480.871094 808.203125 C 482.308594 806.453125 483.707031 804.667969 485.058594 802.847656 C 486.414062 801.03125 487.71875 799.179688 488.980469 797.292969 C 490.242188 795.410156 491.457031 793.496094 492.625 791.554688 C 493.792969 789.609375 494.910156 787.640625 495.984375 785.640625 C 497.054688 783.640625 498.074219 781.617188 499.046875 779.570312 C 500.015625 777.519531 500.9375 775.449219 501.804688 773.355469 C 502.675781 771.261719 503.492188 769.148438 504.257812 767.011719 C 505.023438 764.878906 505.734375 762.726562 506.394531 760.558594 C 507.054688 758.386719 507.660156 756.203125 508.210938 754.003906 C 508.761719 751.804688 509.261719 749.59375 509.703125 747.371094 C 510.144531 745.148438 510.535156 742.914062 510.867188 740.671875 C 511.199219 738.429688 511.480469 736.179688 511.703125 733.925781 C 511.925781 731.667969 512.089844 729.40625 512.203125 727.144531 C 512.3125 724.878906 512.371094 722.613281 512.371094 720.34375 C 512.371094 718.078125 512.3125 715.8125 512.203125 713.546875 C 512.089844 711.28125 511.925781 709.023438 511.703125 706.765625 C 511.480469 704.511719 511.199219 702.261719 510.867188 700.019531 C 510.535156 697.773438 510.144531 695.542969 509.703125 693.320312 C 509.261719 691.09375 508.761719 688.882812 508.210938 686.683594 C 507.660156 684.484375 507.054688 682.300781 506.394531 680.132812 C 505.734375 677.964844 505.023438 675.8125 504.257812 673.675781 C 503.492188 671.542969 502.675781 669.429688 501.804688 667.335938 C 500.9375 665.242188 500.015625 663.167969 499.046875 661.121094 C 498.074219 659.070312 497.054688 657.046875 495.984375 655.050781 C 494.910156 653.050781 493.792969 651.082031 492.625 649.136719 C 491.457031 647.191406 490.242188 645.28125 488.980469 643.394531 C 487.71875 641.511719 486.414062 639.660156 485.058594 637.839844 C 483.707031 636.019531 482.308594 634.234375 480.871094 632.484375 C 479.429688 630.734375 477.945312 629.019531 476.421875 627.34375 C 474.898438 625.664062 473.332031 624.027344 471.726562 622.425781 Z M 471.726562 622.425781 " fill-opacity="1" fill-rule="nonzero"/><path fill="#ffffff" d="M 509.355469 584.796875 C 509.039062 584.445312 508.703125 584.113281 508.351562 583.796875 C 508 583.480469 507.632812 583.183594 507.25 582.90625 C 506.871094 582.628906 506.472656 582.367188 506.066406 582.128906 C 505.660156 581.890625 505.238281 581.675781 504.808594 581.480469 C 504.378906 581.28125 503.941406 581.109375 503.492188 580.957031 C 503.046875 580.804688 502.59375 580.675781 502.132812 580.570312 C 501.671875 580.464844 501.207031 580.382812 500.738281 580.324219 C 500.269531 580.265625 499.796875 580.230469 499.324219 580.222656 C 498.851562 580.210938 498.382812 580.222656 497.910156 580.261719 C 497.4375 580.296875 496.972656 580.359375 496.507812 580.441406 C 496.042969 580.527344 495.582031 580.636719 495.128906 580.765625 C 494.671875 580.898438 494.226562 581.050781 493.789062 581.226562 C 493.351562 581.402344 492.921875 581.601562 492.503906 581.820312 C 492.085938 582.039062 491.679688 582.28125 491.285156 582.542969 C 490.890625 582.800781 490.511719 583.082031 490.144531 583.382812 C 489.78125 583.679688 489.429688 583.996094 489.097656 584.332031 C 488.761719 584.667969 488.449219 585.019531 488.148438 585.386719 C 487.851562 585.75 487.574219 586.132812 487.3125 586.527344 C 487.054688 586.921875 486.816406 587.328125 486.597656 587.75 C 486.378906 588.167969 486.183594 588.597656 486.007812 589.035156 C 485.832031 589.476562 485.679688 589.921875 485.550781 590.375 C 485.421875 590.832031 485.316406 591.289062 485.234375 591.753906 C 485.152344 592.222656 485.089844 592.6875 485.054688 593.160156 C 485.019531 593.632812 485.007812 594.101562 485.023438 594.574219 C 485.035156 595.046875 485.070312 595.519531 485.132812 595.988281 C 485.191406 596.457031 485.273438 596.921875 485.382812 597.378906 C 485.488281 597.839844 485.621094 598.292969 485.773438 598.742188 C 485.925781 599.1875 486.101562 599.625 486.296875 600.054688 C 486.496094 600.484375 486.714844 600.902344 486.953125 601.308594 C 487.195312 601.71875 487.453125 602.109375 487.734375 602.492188 C 488.015625 602.871094 488.3125 603.238281 488.628906 603.589844 C 488.945312 603.9375 489.28125 604.273438 489.632812 604.589844 C 491.535156 606.476562 493.394531 608.410156 495.203125 610.390625 C 497.011719 612.367188 498.773438 614.390625 500.480469 616.457031 C 502.191406 618.523438 503.851562 620.628906 505.457031 622.777344 C 507.0625 624.925781 508.613281 627.113281 510.109375 629.335938 C 511.609375 631.5625 513.050781 633.820312 514.4375 636.117188 C 515.820312 638.414062 517.152344 640.742188 518.421875 643.101562 C 519.691406 645.464844 520.90625 647.855469 522.058594 650.277344 C 523.210938 652.699219 524.304688 655.148438 525.335938 657.621094 C 526.367188 660.097656 527.335938 662.597656 528.246094 665.121094 C 529.15625 667.640625 530 670.1875 530.785156 672.75 C 531.566406 675.316406 532.285156 677.898438 532.941406 680.5 C 533.597656 683.101562 534.1875 685.714844 534.714844 688.34375 C 535.238281 690.972656 535.699219 693.613281 536.097656 696.265625 C 536.492188 698.917969 536.820312 701.582031 537.085938 704.25 C 537.351562 706.917969 537.550781 709.589844 537.683594 712.269531 C 537.8125 714.949219 537.878906 717.628906 537.878906 720.308594 C 537.878906 722.992188 537.8125 725.671875 537.683594 728.351562 C 537.550781 731.027344 537.351562 733.703125 537.085938 736.371094 C 536.820312 739.039062 536.492188 741.699219 536.097656 744.351562 C 535.699219 747.003906 535.238281 749.644531 534.714844 752.277344 C 534.1875 754.90625 533.597656 757.519531 532.941406 760.121094 C 532.285156 762.722656 531.566406 765.304688 530.785156 767.867188 C 530 770.433594 529.15625 772.976562 528.246094 775.5 C 527.335938 778.023438 526.367188 780.523438 525.335938 783 C 524.304688 785.472656 523.210938 787.921875 522.058594 790.34375 C 520.90625 792.765625 519.691406 795.15625 518.421875 797.515625 C 517.152344 799.878906 515.820312 802.207031 514.4375 804.503906 C 513.050781 806.800781 511.609375 809.058594 510.109375 811.285156 C 508.613281 813.507812 507.0625 815.695312 505.457031 817.84375 C 503.851562 819.992188 502.191406 822.097656 500.480469 824.164062 C 498.773438 826.230469 497.011719 828.253906 495.203125 830.230469 C 493.394531 832.210938 491.535156 834.144531 489.632812 836.03125 C 488.980469 836.679688 488.394531 837.382812 487.882812 838.144531 C 487.371094 838.910156 486.9375 839.714844 486.582031 840.5625 C 486.226562 841.410156 485.957031 842.285156 485.773438 843.183594 C 485.59375 844.085938 485.5 844.996094 485.496094 845.914062 C 485.492188 846.832031 485.578125 847.742188 485.757812 848.644531 C 485.933594 849.546875 486.195312 850.421875 486.542969 851.273438 C 486.890625 852.125 487.320312 852.933594 487.828125 853.699219 C 488.335938 854.464844 488.914062 855.171875 489.5625 855.824219 C 490.207031 856.476562 490.914062 857.058594 491.675781 857.574219 C 492.4375 858.085938 493.242188 858.519531 494.089844 858.875 C 494.9375 859.230469 495.8125 859.5 496.714844 859.679688 C 497.613281 859.863281 498.523438 859.957031 499.445312 859.960938 C 500.363281 859.960938 501.273438 859.875 502.175781 859.699219 C 503.078125 859.523438 503.953125 859.261719 504.804688 858.914062 C 505.652344 858.5625 506.460938 858.136719 507.226562 857.628906 C 507.992188 857.121094 508.703125 856.542969 509.355469 855.894531 C 511.585938 853.683594 513.761719 851.417969 515.878906 849.101562 C 517.996094 846.78125 520.058594 844.410156 522.058594 841.992188 C 524.0625 839.570312 526.003906 837.101562 527.882812 834.585938 C 529.761719 832.070312 531.578125 829.507812 533.332031 826.902344 C 535.085938 824.296875 536.773438 821.648438 538.398438 818.960938 C 540.019531 816.269531 541.574219 813.542969 543.0625 810.777344 C 544.550781 808.011719 545.96875 805.210938 547.320312 802.375 C 548.671875 799.535156 549.949219 796.667969 551.15625 793.769531 C 552.367188 790.871094 553.5 787.945312 554.566406 784.988281 C 555.628906 782.03125 556.617188 779.054688 557.535156 776.046875 C 558.453125 773.042969 559.292969 770.019531 560.0625 766.972656 C 560.828125 763.925781 561.519531 760.863281 562.136719 757.785156 C 562.753906 754.703125 563.292969 751.613281 563.757812 748.503906 C 564.21875 745.398438 564.605469 742.28125 564.914062 739.15625 C 565.226562 736.03125 565.457031 732.898438 565.613281 729.761719 C 565.765625 726.625 565.84375 723.484375 565.84375 720.34375 C 565.84375 717.203125 565.765625 714.066406 565.613281 710.929688 C 565.457031 707.789062 565.226562 704.660156 564.914062 701.535156 C 564.605469 698.40625 564.21875 695.292969 563.757812 692.183594 C 563.292969 689.078125 562.753906 685.984375 562.136719 682.90625 C 561.519531 679.824219 560.828125 676.761719 560.0625 673.71875 C 559.292969 670.671875 558.453125 667.644531 557.535156 664.640625 C 556.617188 661.636719 555.628906 658.65625 554.566406 655.703125 C 553.5 652.746094 552.367188 649.820312 551.15625 646.921875 C 549.949219 644.019531 548.671875 641.152344 547.320312 638.316406 C 545.96875 635.480469 544.550781 632.679688 543.0625 629.914062 C 541.574219 627.148438 540.019531 624.421875 538.398438 621.730469 C 536.773438 619.042969 535.085938 616.394531 533.332031 613.789062 C 531.578125 611.183594 529.761719 608.621094 527.882812 606.105469 C 526.003906 603.589844 524.0625 601.121094 522.058594 598.699219 C 520.058594 596.277344 517.996094 593.910156 515.878906 591.589844 C 513.761719 589.273438 511.585938 587.007812 509.355469 584.796875 Z M 509.355469 584.796875 " fill-opacity="1" fill-rule="nonzero"/><path fill="#ffffff" d="M 432.277344 661.3125 C 431.625 660.664062 430.917969 660.085938 430.152344 659.578125 C 429.386719 659.070312 428.578125 658.644531 427.726562 658.296875 C 426.875 657.945312 426 657.683594 425.097656 657.507812 C 424.195312 657.332031 423.285156 657.246094 422.367188 657.25 C 421.449219 657.25 420.539062 657.34375 419.636719 657.527344 C 418.734375 657.710938 417.863281 657.976562 417.015625 658.332031 C 416.167969 658.6875 415.359375 659.121094 414.597656 659.636719 C 413.835938 660.148438 413.132812 660.730469 412.484375 661.382812 C 411.835938 662.035156 411.257812 662.746094 410.75 663.511719 C 410.242188 664.277344 409.816406 665.085938 409.464844 665.933594 C 409.117188 666.785156 408.855469 667.660156 408.679688 668.5625 C 408.503906 669.464844 408.417969 670.375 408.417969 671.292969 C 408.421875 672.214844 408.515625 673.125 408.699219 674.023438 C 408.878906 674.925781 409.148438 675.800781 409.503906 676.648438 C 409.859375 677.496094 410.292969 678.300781 410.804688 679.0625 C 411.320312 679.824219 411.902344 680.53125 412.554688 681.175781 C 413.84375 682.457031 415.070312 683.796875 416.230469 685.199219 C 417.390625 686.597656 418.476562 688.050781 419.492188 689.5625 C 420.507812 691.070312 421.445312 692.625 422.308594 694.222656 C 423.167969 695.824219 423.949219 697.464844 424.648438 699.144531 C 425.347656 700.820312 425.964844 702.53125 426.496094 704.269531 C 427.027344 706.007812 427.46875 707.769531 427.828125 709.550781 C 428.183594 711.332031 428.453125 713.128906 428.628906 714.9375 C 428.808594 716.75 428.898438 718.5625 428.898438 720.378906 C 428.898438 722.199219 428.808594 724.011719 428.628906 725.820312 C 428.453125 727.628906 428.183594 729.425781 427.828125 731.210938 C 427.46875 732.992188 427.027344 734.753906 426.496094 736.492188 C 425.964844 738.230469 425.347656 739.9375 424.648438 741.617188 C 423.949219 743.296875 423.167969 744.933594 422.308594 746.535156 C 421.445312 748.136719 420.507812 749.691406 419.492188 751.199219 C 418.476562 752.707031 417.390625 754.164062 416.230469 755.5625 C 415.070312 756.964844 413.84375 758.304688 412.554688 759.582031 C 411.902344 760.230469 411.316406 760.9375 410.804688 761.699219 C 410.289062 762.460938 409.855469 763.265625 409.5 764.113281 C 409.144531 764.960938 408.875 765.835938 408.695312 766.738281 C 408.511719 767.636719 408.417969 768.546875 408.414062 769.46875 C 408.410156 770.386719 408.496094 771.296875 408.671875 772.199219 C 408.847656 773.101562 409.113281 773.976562 409.460938 774.828125 C 409.808594 775.679688 410.238281 776.488281 410.746094 777.253906 C 411.253906 778.019531 411.832031 778.730469 412.480469 779.382812 C 413.125 780.035156 413.832031 780.617188 414.59375 781.128906 C 415.355469 781.644531 416.164062 782.078125 417.011719 782.433594 C 417.859375 782.789062 418.734375 783.054688 419.632812 783.238281 C 420.535156 783.421875 421.445312 783.511719 422.363281 783.515625 C 423.285156 783.519531 424.195312 783.433594 425.097656 783.257812 C 426 783.078125 426.875 782.816406 427.726562 782.46875 C 428.578125 782.117188 429.386719 781.691406 430.152344 781.183594 C 430.917969 780.671875 431.625 780.09375 432.277344 779.445312 C 433.25 778.484375 434.199219 777.496094 435.121094 776.488281 C 436.042969 775.476562 436.941406 774.445312 437.816406 773.390625 C 438.6875 772.335938 439.535156 771.257812 440.351562 770.164062 C 441.171875 769.066406 441.964844 767.949219 442.726562 766.8125 C 443.492188 765.679688 444.226562 764.523438 444.9375 763.351562 C 445.644531 762.179688 446.320312 760.992188 446.96875 759.789062 C 447.617188 758.582031 448.238281 757.363281 448.824219 756.125 C 449.414062 754.890625 449.96875 753.640625 450.496094 752.375 C 451.023438 751.113281 451.519531 749.835938 451.984375 748.550781 C 452.445312 747.261719 452.878906 745.964844 453.277344 744.652344 C 453.675781 743.34375 454.042969 742.027344 454.378906 740.699219 C 454.710938 739.371094 455.015625 738.039062 455.28125 736.695312 C 455.550781 735.351562 455.785156 734.003906 455.988281 732.652344 C 456.191406 731.296875 456.359375 729.941406 456.492188 728.578125 C 456.628906 727.214844 456.730469 725.851562 456.796875 724.484375 C 456.867188 723.117188 456.898438 721.75 456.898438 720.378906 C 456.898438 719.011719 456.867188 717.644531 456.796875 716.277344 C 456.730469 714.910156 456.628906 713.542969 456.492188 712.183594 C 456.359375 710.820312 456.191406 709.460938 455.988281 708.109375 C 455.785156 706.753906 455.550781 705.40625 455.28125 704.066406 C 455.015625 702.722656 454.710938 701.386719 454.378906 700.0625 C 454.042969 698.734375 453.675781 697.414062 453.277344 696.105469 C 452.878906 694.796875 452.445312 693.5 451.984375 692.210938 C 451.519531 690.921875 451.023438 689.648438 450.496094 688.382812 C 449.96875 687.121094 449.414062 685.871094 448.824219 684.632812 C 448.238281 683.398438 447.617188 682.179688 446.96875 680.972656 C 446.320312 679.765625 445.644531 678.578125 444.9375 677.40625 C 444.226562 676.234375 443.492188 675.082031 442.726562 673.945312 C 441.964844 672.808594 441.171875 671.695312 440.351562 670.597656 C 439.535156 669.5 438.6875 668.425781 437.816406 667.371094 C 436.941406 666.316406 436.042969 665.285156 435.121094 664.273438 C 434.199219 663.261719 433.25 662.277344 432.277344 661.3125 Z M 432.277344 661.3125 " fill-opacity="1" fill-rule="nonzero"/></svg>