<svg xmlns="http://www.w3.org/2000/svg" xmlns:xlink="http://www.w3.org/1999/xlink" width="1080" zoomAndPan="magnify" viewBox="0 0 810 1439.999935" height="1920" preserveAspectRatio="xMidYMid meet" version="1.0"><path fill="#ffffff" d="M 550.785156 719.996094 C 550.785156 800.386719 485.386719 865.785156 404.996094 865.785156 C 324.605469 865.785156 259.203125 800.386719 259.203125 719.996094 C 259.203125 639.605469 324.605469 574.203125 404.996094 574.203125 C 485.386719 574.203125 550.785156 639.605469 550.785156 719.996094 Z M 566.84375 719.996094 C 566.84375 676.765625 550.007812 636.121094 519.4375 605.550781 C 488.871094 574.984375 448.226562 558.148438 404.996094 558.148438 C 361.761719 558.148438 321.121094 574.984375 290.550781 605.550781 C 259.980469 636.121094 243.148438 676.765625 243.148438 719.996094 C 243.148438 763.226562 259.980469 803.871094 290.550781 834.4375 C 321.121094 865.007812 361.761719 881.84375 404.996094 881.84375 C 448.226562 881.84375 488.871094 865.007812 519.4375 834.4375 C 550.007812 803.871094 566.84375 763.226562 566.84375 719.996094 " fill-opacity="1" fill-rule="nonzero"/><path fill="#ffffff" d="M 404.996094 574.351562 C 324.6875 574.351562 259.351562 639.6875 259.351562 719.996094 C 259.351562 800.304688 324.6875 865.636719 404.996094 865.636719 C 485.304688 865.636719 550.636719 800.304688 550.636719 719.996094 C 550.636719 639.6875 485.304688 574.351562 404.996094 574.351562 Z M 404.996094 865.933594 C 324.523438 865.933594 259.054688 800.464844 259.054688 719.996094 C 259.054688 639.523438 324.523438 574.054688 404.996094 574.054688 C 485.464844 574.054688 550.933594 639.523438 550.933594 719.996094 C 550.933594 800.464844 485.464844 865.933594 404.996094 865.933594 Z M 404.996094 558.292969 C 361.804688 558.292969 321.195312 575.117188 290.65625 605.65625 C 260.113281 636.195312 243.292969 676.804688 243.292969 719.996094 C 243.292969 763.1875 260.113281 803.792969 290.65625 834.335938 C 321.195312 864.875 361.804688 881.695312 404.996094 881.695312 C 448.1875 881.695312 488.792969 864.875 519.335938 834.335938 C 549.875 803.792969 566.695312 763.183594 566.695312 719.996094 C 566.695312 676.804688 549.875 636.195312 519.335938 605.65625 C 488.792969 575.117188 448.1875 558.292969 404.996094 558.292969 Z M 404.996094 881.992188 C 361.722656 881.992188 321.042969 865.140625 290.445312 834.542969 C 259.851562 803.945312 243 763.265625 243 719.996094 C 243 676.722656 259.851562 636.042969 290.445312 605.445312 C 321.042969 574.851562 361.726562 558 404.996094 558 C 448.265625 558 488.945312 574.851562 519.542969 605.445312 C 550.140625 636.042969 566.992188 676.726562 566.992188 719.996094 C 566.992188 763.265625 550.140625 803.945312 519.542969 834.542969 C 488.945312 865.140625 448.265625 881.992188 404.996094 881.992188 " fill-opacity="1" fill-rule="nonzero"/><path fill="#ffffff" d="M 410.40625 812.679688 C 410.390625 812.695312 410.378906 812.703125 410.363281 812.714844 C 410.191406 812.886719 410.011719 813.050781 409.824219 813.203125 C 409.777344 813.238281 409.730469 813.273438 409.6875 813.308594 C 409.546875 813.417969 409.398438 813.523438 409.25 813.625 C 409.175781 813.675781 409.101562 813.726562 409.023438 813.773438 C 408.894531 813.855469 408.761719 813.929688 408.628906 814.003906 C 408.550781 814.046875 408.472656 814.09375 408.394531 814.132812 C 408.207031 814.230469 408.019531 814.316406 407.820312 814.398438 C 407.816406 814.402344 407.808594 814.402344 407.800781 814.40625 C 407.714844 814.441406 407.625 814.472656 407.535156 814.503906 C 407.402344 814.554688 407.265625 814.601562 407.128906 814.644531 C 407.039062 814.671875 406.949219 814.699219 406.855469 814.722656 C 406.707031 814.765625 406.558594 814.800781 406.410156 814.832031 C 406.332031 814.847656 406.257812 814.863281 406.179688 814.878906 C 405.953125 814.917969 405.726562 814.953125 405.5 814.972656 C 405.476562 814.976562 405.453125 814.976562 405.429688 814.980469 C 405.21875 814.996094 405.011719 815.003906 404.800781 815.003906 C 404.730469 815.007812 404.660156 815.003906 404.589844 815.003906 C 404.421875 815 404.253906 814.992188 404.085938 814.976562 C 404.015625 814.972656 403.941406 814.964844 403.867188 814.957031 C 403.664062 814.933594 403.464844 814.90625 403.265625 814.867188 C 403.210938 814.859375 403.15625 814.847656 403.101562 814.835938 C 402.910156 814.796875 402.722656 814.746094 402.53125 814.695312 C 402.445312 814.667969 402.355469 814.636719 402.265625 814.609375 C 402.132812 814.566406 402 814.519531 401.871094 814.46875 C 401.78125 814.433594 401.6875 814.402344 401.597656 814.363281 C 401.4375 814.292969 401.28125 814.21875 401.128906 814.140625 C 401.042969 814.097656 400.957031 814.054688 400.875 814.007812 C 400.710938 813.917969 400.550781 813.824219 400.394531 813.722656 C 400.320312 813.675781 400.25 813.625 400.183594 813.578125 C 400.042969 813.480469 399.910156 813.382812 399.777344 813.277344 C 399.71875 813.230469 399.660156 813.183594 399.601562 813.136719 C 399.421875 812.984375 399.242188 812.828125 399.074219 812.65625 L 338.863281 752.449219 C 335.726562 749.3125 335.726562 744.230469 338.863281 741.09375 C 341.996094 737.957031 347.082031 737.957031 350.21875 741.09375 L 396.722656 787.601562 L 396.722656 633.007812 C 396.722656 628.574219 400.316406 624.980469 404.75 624.980469 C 409.183594 624.980469 412.78125 628.574219 412.78125 633.007812 L 412.78125 787.710938 L 459.796875 741.070312 C 461.363281 739.519531 463.40625 738.742188 465.449219 738.742188 C 467.515625 738.742188 469.578125 739.535156 471.148438 741.117188 C 474.273438 744.265625 474.25 749.347656 471.101562 752.46875 L 410.40625 812.679688 " fill-opacity="1" fill-rule="nonzero"/><path fill="#ffffff" d="M 344.539062 738.890625 C 342.433594 738.890625 340.457031 739.707031 338.96875 741.199219 C 335.894531 744.269531 335.894531 749.269531 338.96875 752.34375 L 399.179688 812.554688 C 399.328125 812.703125 399.496094 812.855469 399.695312 813.023438 C 399.738281 813.058594 399.777344 813.089844 399.816406 813.121094 L 399.867188 813.160156 C 399.996094 813.261719 400.128906 813.363281 400.265625 813.457031 L 400.292969 813.476562 C 400.351562 813.515625 400.414062 813.558594 400.472656 813.597656 C 400.628906 813.699219 400.785156 813.789062 400.945312 813.878906 C 401.027344 813.925781 401.109375 813.96875 401.195312 814.007812 C 401.347656 814.085938 401.5 814.160156 401.65625 814.226562 C 401.738281 814.261719 401.820312 814.292969 401.902344 814.324219 C 402.050781 814.382812 402.183594 814.429688 402.3125 814.46875 L 402.359375 814.484375 C 402.429688 814.507812 402.5 814.53125 402.574219 814.550781 C 402.757812 814.605469 402.945312 814.652344 403.128906 814.691406 C 403.183594 814.703125 403.238281 814.714844 403.292969 814.722656 C 403.484375 814.757812 403.679688 814.789062 403.882812 814.8125 C 403.9375 814.816406 403.996094 814.820312 404.050781 814.824219 L 404.101562 814.832031 C 404.261719 814.84375 404.429688 814.851562 404.589844 814.855469 L 404.636719 814.855469 C 404.691406 814.859375 404.746094 814.859375 404.800781 814.859375 C 405.011719 814.855469 405.222656 814.847656 405.417969 814.832031 L 405.457031 814.828125 C 405.695312 814.808594 405.914062 814.777344 406.15625 814.734375 C 406.207031 814.726562 406.257812 814.714844 406.304688 814.703125 L 406.378906 814.6875 C 406.523438 814.65625 406.671875 814.621094 406.816406 814.582031 C 406.90625 814.558594 406.996094 814.53125 407.085938 814.503906 C 407.21875 814.460938 407.351562 814.417969 407.484375 814.367188 L 407.574219 814.335938 C 407.632812 814.3125 407.6875 814.292969 407.746094 814.269531 C 407.949219 814.1875 408.136719 814.101562 408.328125 814.003906 C 408.378906 813.976562 408.429688 813.949219 408.480469 813.917969 L 408.558594 813.875 C 408.6875 813.804688 408.820312 813.730469 408.945312 813.648438 C 409.019531 813.601562 409.09375 813.554688 409.167969 813.503906 C 409.3125 813.40625 409.457031 813.300781 409.597656 813.191406 L 409.65625 813.148438 C 409.679688 813.128906 409.703125 813.109375 409.730469 813.089844 C 409.90625 812.945312 410.085938 812.785156 410.261719 812.613281 L 410.289062 812.585938 L 410.40625 812.679688 L 410.300781 812.578125 L 471 752.363281 C 474.085938 749.304688 474.105469 744.304688 471.042969 741.21875 C 469.554688 739.714844 467.566406 738.890625 465.449219 738.890625 C 463.355469 738.890625 461.386719 739.703125 459.898438 741.175781 L 412.632812 788.0625 L 412.632812 633.007812 C 412.632812 628.664062 409.097656 625.128906 404.75 625.128906 C 400.40625 625.128906 396.871094 628.664062 396.871094 633.007812 L 396.871094 787.957031 L 350.113281 741.199219 C 348.625 739.707031 346.644531 738.890625 344.539062 738.890625 Z M 404.78125 815.152344 C 404.730469 815.152344 404.679688 815.152344 404.628906 815.152344 L 404.585938 815.152344 C 404.414062 815.148438 404.246094 815.136719 404.074219 815.125 L 404.027344 815.121094 C 403.96875 815.113281 403.910156 815.109375 403.851562 815.105469 C 403.640625 815.082031 403.433594 815.050781 403.238281 815.011719 C 403.183594 815.003906 403.125 814.992188 403.070312 814.980469 C 402.875 814.9375 402.683594 814.890625 402.492188 814.835938 C 402.417969 814.816406 402.339844 814.789062 402.265625 814.765625 L 402.222656 814.75 C 402.085938 814.707031 401.953125 814.660156 401.820312 814.609375 C 401.710938 814.566406 401.625 814.535156 401.542969 814.5 C 401.378906 814.429688 401.21875 814.351562 401.058594 814.273438 C 400.972656 814.230469 400.886719 814.183594 400.804688 814.136719 C 400.632812 814.042969 400.46875 813.945312 400.3125 813.84375 C 400.25 813.804688 400.1875 813.761719 400.125 813.714844 L 400.097656 813.699219 C 399.957031 813.601562 399.820312 813.496094 399.6875 813.390625 L 399.636719 813.355469 C 399.59375 813.320312 399.550781 813.285156 399.507812 813.25 C 399.300781 813.078125 399.125 812.917969 398.96875 812.761719 L 338.757812 752.550781 C 335.570312 749.363281 335.570312 744.175781 338.757812 740.988281 C 340.300781 739.445312 342.355469 738.59375 344.539062 738.59375 C 346.722656 738.59375 348.777344 739.445312 350.320312 740.988281 L 396.574219 787.246094 L 396.574219 633.007812 C 396.574219 628.5 400.242188 624.832031 404.75 624.832031 C 409.257812 624.832031 412.925781 628.5 412.925781 633.007812 L 412.925781 787.355469 L 459.691406 740.964844 C 461.234375 739.4375 463.277344 738.59375 465.449219 738.59375 C 467.644531 738.59375 469.707031 739.453125 471.253906 741.011719 C 474.429688 744.210938 474.40625 749.398438 471.207031 752.574219 L 410.503906 812.789062 L 410.480469 812.8125 C 410.285156 813 410.101562 813.167969 409.914062 813.316406 C 409.886719 813.339844 409.859375 813.363281 409.832031 813.382812 L 409.777344 813.421875 C 409.632812 813.535156 409.484375 813.644531 409.332031 813.746094 C 409.257812 813.800781 409.179688 813.847656 409.101562 813.898438 C 408.972656 813.980469 408.835938 814.058594 408.699219 814.132812 L 408.625 814.175781 C 408.570312 814.207031 408.515625 814.238281 408.460938 814.265625 C 408.261719 814.367188 408.070312 814.453125 407.878906 814.535156 C 407.796875 814.566406 407.734375 814.589844 407.671875 814.613281 L 407.585938 814.644531 C 407.449219 814.695312 407.3125 814.742188 407.171875 814.785156 C 407.082031 814.816406 406.988281 814.839844 406.894531 814.867188 C 406.742188 814.90625 406.589844 814.945312 406.4375 814.976562 L 406.371094 814.992188 C 406.316406 815.003906 406.261719 815.011719 406.207031 815.023438 C 405.957031 815.070312 405.730469 815.101562 405.511719 815.121094 L 405.46875 815.125 C 405.238281 815.140625 405.023438 815.152344 404.800781 815.152344 C 404.796875 815.152344 404.789062 815.152344 404.78125 815.152344 " fill-opacity="1" fill-rule="nonzero"/></svg>