<svg xmlns="http://www.w3.org/2000/svg" xmlns:xlink="http://www.w3.org/1999/xlink" width="1080" zoomAndPan="magnify" viewBox="0 0 810 1439.999935" height="1920" preserveAspectRatio="xMidYMid meet" version="1.0"><defs><clipPath id="257070fd65"><path d="M 243 500.347656 L 565 500.347656 L 565 823 L 243 823 Z M 243 500.347656 " clip-rule="nonzero"/></clipPath></defs><g clip-path="url(#257070fd65)"><path fill="#ffffff" d="M 451.25 737.269531 L 530.609375 816.601562 C 538.464844 824.457031 551.226562 824.453125 559.082031 816.597656 C 566.9375 808.738281 566.933594 795.976562 559.078125 788.121094 L 479.773438 708.847656 C 495.726562 687.148438 505.15625 660.351562 505.15625 631.367188 C 505.15625 559.054688 446.449219 500.347656 374.140625 500.347656 C 301.828125 500.347656 243.121094 559.054688 243.121094 631.367188 C 243.121094 703.679688 301.828125 762.382812 374.140625 762.382812 C 402.957031 762.382812 429.609375 753.0625 451.25 737.269531 Z M 374.140625 540.617188 C 424.226562 540.617188 464.890625 581.28125 464.890625 631.367188 C 464.890625 681.453125 424.226562 722.117188 374.140625 722.117188 C 324.054688 722.117188 283.390625 681.453125 283.390625 631.367188 C 283.390625 581.28125 324.054688 540.617188 374.140625 540.617188 Z M 374.140625 540.617188 " fill-opacity="1" fill-rule="evenodd"/></g></svg>